<svg xmlns="http://www.w3.org/2000/svg" xmlns:xlink="http://www.w3.org/1999/xlink" width="512" zoomAndPan="magnify" viewBox="0 0 384 383.999986" height="512" preserveAspectRatio="xMidYMid meet" version="1.0"><defs><g/><clipPath id="9af86976fe"><path d="M 0 0 L 384 0 L 384 382.539062 L 0 382.539062 Z M 0 0 " clip-rule="nonzero"/></clipPath><clipPath id="b315e0a131"><path d="M 18 0 L 366 0 C 370.773438 0 375.351562 1.894531 378.726562 5.273438 C 382.105469 8.648438 384 13.226562 384 18 L 384 364.539062 C 384 374.480469 375.941406 382.539062 366 382.539062 L 18 382.539062 C 13.226562 382.539062 8.648438 380.644531 5.273438 377.265625 C 1.894531 373.890625 0 369.3125 0 364.539062 L 0 18 C 0 8.058594 8.058594 0 18 0 Z M 18 0 " clip-rule="nonzero"/></clipPath></defs><rect x="-38.4" width="460.8" fill="#ffffff" y="-38.399999" height="460.799983" fill-opacity="1"/><rect x="-38.4" width="460.8" fill="#ffffff" y="-38.399999" height="460.799983" fill-opacity="1"/><g clip-path="url(#9af86976fe)"><g clip-path="url(#b315e0a131)"><path fill="#000000" d="M 0 0 L 384 0 L 384 382.539062 L 0 382.539062 Z M 0 0 " fill-opacity="1" fill-rule="nonzero"/></g></g><g fill="#ffffff" fill-opacity="1"><g transform="translate(63.673413, 299.930557)"><g><path d="M 75.90625 0 L 130.445312 0 L 205.710938 -223.253906 L 157.554688 -223.253906 L 103.335938 -51.667969 L 48.796875 -223.253906 L 0.957031 -223.253906 Z M 75.90625 0 "/></g></g></g><g fill="#cf000f" fill-opacity="1"><g transform="translate(251.567594, 304.216325)"><g><path d="M 34.378906 3.335938 C 46.4375 3.335938 56.1875 -6.414062 56.1875 -18.472656 C 56.1875 -30.53125 46.4375 -40.28125 34.378906 -40.28125 C 22.320312 -40.28125 12.570312 -30.53125 12.570312 -18.472656 C 12.570312 -6.414062 22.320312 3.335938 34.378906 3.335938 Z M 34.378906 3.335938 "/></g></g></g></svg>